<svg xmlns="http://www.w3.org/2000/svg" width="512" height="512" viewBox="0 0 512 512" role="img" aria-labelledby="title">
  <title>American Life Summer School</title>
  <rect width="512" height="512" rx="112" fill="#176b62"/>
  <circle cx="384" cy="128" r="64" fill="#f4c25f"/>
  <path d="M112 325c48-85 112-128 192-128 45 0 80 13 106 37v112c-27-32-62-48-106-48-72 0-133 35-181 101l-11-74Z" fill="#f5f7f2"/>
  <path d="M123 155h144c48 0 85 37 85 85v117H208c-48 0-85-37-85-85V155Z" fill="#ffffff" opacity="0.92"/>
  <path d="M181 224h112M181 283h75" stroke="#176b62" stroke-width="27" stroke-linecap="round"/>
  <text x="256" y="439" text-anchor="middle" font-family="Arial, sans-serif" font-size="58" font-weight="700" fill="#ffffff">AL</text>
</svg>
